<mxfile host="app.diagrams.net" modified="2023-02-23T07:03:53.454Z" agent="5.0 (Windows NT 10.0; Win64; x64) AppleWebKit/537.36 (KHTML, like Gecko) Chrome/110.0.0.0 Safari/537.36 Edg/110.0.1587.50" etag="w6gjFxUFypQjnp3VHaUA" version="20.8.23" type="github">
  <diagram name="第 1 页" id="IACxLr-tMT6NA9MdaYOa">
    <mxGraphModel dx="1420" dy="749" grid="1" gridSize="10" guides="1" tooltips="1" connect="1" arrows="1" fold="1" page="1" pageScale="1" pageWidth="827" pageHeight="1169" math="0" shadow="0">
      <root>
        <mxCell id="0" />
        <mxCell id="1" parent="0" />
        <mxCell id="L4yY8soeMmTzs0nPKb9y-49" style="edgeStyle=orthogonalEdgeStyle;rounded=0;orthogonalLoop=1;jettySize=auto;html=1;exitX=1;exitY=0.75;exitDx=0;exitDy=0;entryX=0;entryY=0.25;entryDx=0;entryDy=0;" edge="1" parent="1" source="L4yY8soeMmTzs0nPKb9y-2" target="L4yY8soeMmTzs0nPKb9y-28">
          <mxGeometry relative="1" as="geometry" />
        </mxCell>
        <mxCell id="L4yY8soeMmTzs0nPKb9y-54" style="edgeStyle=orthogonalEdgeStyle;rounded=0;orthogonalLoop=1;jettySize=auto;html=1;exitX=1;exitY=0.25;exitDx=0;exitDy=0;" edge="1" parent="1" source="L4yY8soeMmTzs0nPKb9y-2">
          <mxGeometry relative="1" as="geometry">
            <mxPoint x="950" y="175" as="targetPoint" />
          </mxGeometry>
        </mxCell>
        <mxCell id="L4yY8soeMmTzs0nPKb9y-58" style="edgeStyle=orthogonalEdgeStyle;rounded=0;orthogonalLoop=1;jettySize=auto;html=1;exitX=0.5;exitY=1;exitDx=0;exitDy=0;entryX=0.764;entryY=0.199;entryDx=0;entryDy=0;entryPerimeter=0;" edge="1" parent="1" source="L4yY8soeMmTzs0nPKb9y-2" target="L4yY8soeMmTzs0nPKb9y-19">
          <mxGeometry relative="1" as="geometry" />
        </mxCell>
        <mxCell id="L4yY8soeMmTzs0nPKb9y-2" value="基础服务" style="swimlane;fillColor=#d5e8d4;strokeColor=#82b366;" vertex="1" parent="1">
          <mxGeometry x="640" y="120" width="130" height="220" as="geometry">
            <mxRectangle x="310" y="290" width="100" height="30" as="alternateBounds" />
          </mxGeometry>
        </mxCell>
        <mxCell id="L4yY8soeMmTzs0nPKb9y-34" value="" style="rounded=1;whiteSpace=wrap;html=1;" vertex="1" parent="L4yY8soeMmTzs0nPKb9y-2">
          <mxGeometry x="15" y="50" width="100" height="40" as="geometry" />
        </mxCell>
        <mxCell id="L4yY8soeMmTzs0nPKb9y-48" style="edgeStyle=orthogonalEdgeStyle;rounded=0;orthogonalLoop=1;jettySize=auto;html=1;exitX=1;exitY=0.5;exitDx=0;exitDy=0;" edge="1" parent="1" source="L4yY8soeMmTzs0nPKb9y-3">
          <mxGeometry relative="1" as="geometry">
            <mxPoint x="640" y="300" as="targetPoint" />
          </mxGeometry>
        </mxCell>
        <mxCell id="L4yY8soeMmTzs0nPKb9y-50" style="edgeStyle=orthogonalEdgeStyle;rounded=0;orthogonalLoop=1;jettySize=auto;html=1;exitX=1;exitY=0.75;exitDx=0;exitDy=0;entryX=-0.02;entryY=0.931;entryDx=0;entryDy=0;entryPerimeter=0;" edge="1" parent="1" source="L4yY8soeMmTzs0nPKb9y-3" target="L4yY8soeMmTzs0nPKb9y-28">
          <mxGeometry relative="1" as="geometry" />
        </mxCell>
        <mxCell id="L4yY8soeMmTzs0nPKb9y-56" style="edgeStyle=orthogonalEdgeStyle;rounded=0;orthogonalLoop=1;jettySize=auto;html=1;entryX=0.436;entryY=0.299;entryDx=0;entryDy=0;entryPerimeter=0;" edge="1" parent="1" source="L4yY8soeMmTzs0nPKb9y-3" target="L4yY8soeMmTzs0nPKb9y-19">
          <mxGeometry relative="1" as="geometry" />
        </mxCell>
        <mxCell id="L4yY8soeMmTzs0nPKb9y-3" value="业务服务" style="swimlane;fillColor=#ffe6cc;strokeColor=#d79b00;" vertex="1" parent="1">
          <mxGeometry x="440" y="120" width="140" height="360" as="geometry">
            <mxRectangle x="310" y="290" width="100" height="30" as="alternateBounds" />
          </mxGeometry>
        </mxCell>
        <mxCell id="L4yY8soeMmTzs0nPKb9y-35" value="" style="rounded=1;whiteSpace=wrap;html=1;" vertex="1" parent="L4yY8soeMmTzs0nPKb9y-3">
          <mxGeometry x="20" y="40" width="100" height="40" as="geometry" />
        </mxCell>
        <mxCell id="L4yY8soeMmTzs0nPKb9y-4" value="数据存储" style="swimlane;fillColor=#a20025;fontColor=#ffffff;strokeColor=#6F0000;" vertex="1" parent="1">
          <mxGeometry x="950" y="120" width="110" height="360" as="geometry">
            <mxRectangle x="950" y="120" width="100" height="30" as="alternateBounds" />
          </mxGeometry>
        </mxCell>
        <mxCell id="L4yY8soeMmTzs0nPKb9y-12" value="oracle" style="rounded=0;whiteSpace=wrap;html=1;" vertex="1" parent="L4yY8soeMmTzs0nPKb9y-4">
          <mxGeometry x="15" y="40" width="80" height="50" as="geometry" />
        </mxCell>
        <mxCell id="L4yY8soeMmTzs0nPKb9y-13" value="ES" style="rounded=0;whiteSpace=wrap;html=1;" vertex="1" parent="L4yY8soeMmTzs0nPKb9y-4">
          <mxGeometry x="15" y="120" width="80" height="50" as="geometry" />
        </mxCell>
        <mxCell id="L4yY8soeMmTzs0nPKb9y-7" value="" style="html=1;outlineConnect=0;whiteSpace=wrap;fillColor=#99ffff;shape=mxgraph.archimate3.application;appType=interface;archiType=square;" vertex="1" parent="1">
          <mxGeometry x="250" y="780" width="150" height="75" as="geometry" />
        </mxCell>
        <mxCell id="L4yY8soeMmTzs0nPKb9y-8" value="" style="html=1;outlineConnect=0;whiteSpace=wrap;fillColor=#ffff99;shape=mxgraph.archimate3.application;appType=interface;archiType=square;" vertex="1" parent="1">
          <mxGeometry x="450" y="860" width="150" height="75" as="geometry" />
        </mxCell>
        <mxCell id="L4yY8soeMmTzs0nPKb9y-14" value="" style="strokeWidth=2;strokeColor=#000000;dashed=0;align=center;html=1;fontSize=8;shape=mxgraph.eip.messageChannel;" vertex="1" parent="1">
          <mxGeometry x="707" y="790" width="120" height="20" as="geometry" />
        </mxCell>
        <mxCell id="L4yY8soeMmTzs0nPKb9y-15" value="" style="edgeStyle=elbowEdgeStyle;strokeWidth=2;rounded=0;endArrow=block;startArrow=block;startSize=10;endSize=10;dashed=0;html=1;strokeColor=#808080;" edge="1" target="L4yY8soeMmTzs0nPKb9y-14" parent="1">
          <mxGeometry relative="1" as="geometry">
            <mxPoint x="767" y="870" as="sourcePoint" />
          </mxGeometry>
        </mxCell>
        <mxCell id="L4yY8soeMmTzs0nPKb9y-17" value="" style="edgeStyle=elbowEdgeStyle;strokeWidth=2;rounded=0;endArrow=block;startArrow=block;startSize=10;endSize=10;dashed=0;html=1;strokeColor=#808080;" edge="1" target="L4yY8soeMmTzs0nPKb9y-14" parent="1">
          <mxGeometry relative="1" as="geometry">
            <mxPoint x="767" y="730" as="sourcePoint" />
          </mxGeometry>
        </mxCell>
        <mxCell id="L4yY8soeMmTzs0nPKb9y-18" value="" style="edgeStyle=elbowEdgeStyle;strokeWidth=2;rounded=0;endArrow=block;startArrow=block;startSize=10;endSize=10;dashed=0;html=1;strokeColor=#808080;" edge="1" target="L4yY8soeMmTzs0nPKb9y-14" parent="1">
          <mxGeometry relative="1" as="geometry">
            <mxPoint x="807" y="730" as="sourcePoint" />
          </mxGeometry>
        </mxCell>
        <mxCell id="L4yY8soeMmTzs0nPKb9y-19" value="数据总线" style="html=1;fillColor=#CCCCCC;strokeColor=#6881B3;gradientColor=none;gradientDirection=north;strokeWidth=2;shape=mxgraph.networks.bus;gradientColor=none;gradientDirection=north;fontColor=#ffffff;perimeter=backbonePerimeter;backboneSize=20;" vertex="1" parent="1">
          <mxGeometry x="230" y="590" width="636" height="40" as="geometry" />
        </mxCell>
        <mxCell id="L4yY8soeMmTzs0nPKb9y-28" value="缓存&lt;br&gt;redis" style="rounded=0;whiteSpace=wrap;html=1;" vertex="1" parent="1">
          <mxGeometry x="850" y="240" width="50" height="160" as="geometry" />
        </mxCell>
        <mxCell id="L4yY8soeMmTzs0nPKb9y-39" style="edgeStyle=orthogonalEdgeStyle;rounded=0;orthogonalLoop=1;jettySize=auto;html=1;exitX=1;exitY=0.5;exitDx=0;exitDy=0;entryX=0;entryY=0.5;entryDx=0;entryDy=0;" edge="1" parent="1" source="L4yY8soeMmTzs0nPKb9y-36" target="L4yY8soeMmTzs0nPKb9y-3">
          <mxGeometry relative="1" as="geometry" />
        </mxCell>
        <mxCell id="L4yY8soeMmTzs0nPKb9y-55" style="edgeStyle=orthogonalEdgeStyle;rounded=0;orthogonalLoop=1;jettySize=auto;html=1;entryX=0.129;entryY=0.249;entryDx=0;entryDy=0;entryPerimeter=0;" edge="1" parent="1" source="L4yY8soeMmTzs0nPKb9y-36" target="L4yY8soeMmTzs0nPKb9y-19">
          <mxGeometry relative="1" as="geometry" />
        </mxCell>
        <mxCell id="L4yY8soeMmTzs0nPKb9y-36" value="应用服务" style="swimlane;startSize=23;fillColor=#e1d5e7;strokeColor=#9673a6;glass=0;" vertex="1" parent="1">
          <mxGeometry x="240" y="120" width="140" height="360" as="geometry">
            <mxRectangle x="310" y="290" width="100" height="30" as="alternateBounds" />
          </mxGeometry>
        </mxCell>
        <mxCell id="L4yY8soeMmTzs0nPKb9y-37" value="" style="rounded=1;whiteSpace=wrap;html=1;" vertex="1" parent="L4yY8soeMmTzs0nPKb9y-36">
          <mxGeometry x="20" y="40" width="100" height="40" as="geometry" />
        </mxCell>
        <mxCell id="L4yY8soeMmTzs0nPKb9y-51" style="edgeStyle=orthogonalEdgeStyle;rounded=0;orthogonalLoop=1;jettySize=auto;html=1;" edge="1" parent="1">
          <mxGeometry relative="1" as="geometry">
            <mxPoint x="580" y="440" as="sourcePoint" />
            <mxPoint x="950" y="440" as="targetPoint" />
          </mxGeometry>
        </mxCell>
      </root>
    </mxGraphModel>
  </diagram>
</mxfile>
